<?xml version="1.0" encoding="utf-8"?>
<!-- Generator: Adobe Illustrator 28.0.0, SVG Export Plug-In . SVG Version: 6.00 Build 0)  -->
<svg version="1.1" id="Lager_2_00000002343134069378044220000013603589229031407241_"
	 xmlns="http://www.w3.org/2000/svg" xmlns:xlink="http://www.w3.org/1999/xlink" x="0px" y="0px" viewBox="0 0 714.1 260.9"
	 style="enable-background:new 0 0 714.1 260.9;" xml:space="preserve">
<style type="text/css">
	.st0{fill:#009999;}
</style>
<g id="ar">
	<g id="ta_00000104695949449816672340000007193468052777699512_">
		<path class="st0" d="M124.8,50.8c-0.2-0.3,15.8-16.4,13.5-19.7c-0.1-0.2-0.5-0.2-0.6,0l-15,16.2c-0.2,0.2-0.5,0.2-0.6,0l-5.2-7.3
			c-1.1-1.3,2-0.1,3.5,0.4c0.3,0.1,0.6-0.2,0.5-0.6c-1.3-3.1-8.5-10.6-10.6-10.9c-1-1-2.4,6.2-2.1,8.8c0,0.1,0,0.1,0.1,0.2
			c2.9,5.1,5.5,9.7,8.2,14.5c0.1,0.2,0.1,0.4-0.1,0.5c-1.3,1.1-7.2,6.9-10.1,16.9l0,0c-2.1,10.2,1.6,13.6,6.9,13c0,0,0,0,0.1,0
			c16.3-3.9,20.3-13.7,17.8-21.9C130,57.3,126.2,53.5,124.8,50.8z M127.2,67.6c-0.3,1.8-2.1,2.7-2.1,2.7c-2.3,1.8-7.3,2.9-10.6,3.4
			c-2.5,0.1-5.4-1.9-4-6.2c0,0,0,0,0-0.1c1.1-2.3,2.6-4.6,4.8-7.1c1.3-1.5,2.6-2.8,3.8-3.9c0.2-0.1,0.4-0.1,0.6,0
			c2.8,3.2,4.9,5.8,6.2,7.6C126.6,65,127.4,66.2,127.2,67.6z"/>
		<circle class="st0" cx="118.7" cy="27.2" r="4"/>
		<circle class="st0" cx="130.1" cy="28.1" r="4"/>
	</g>
	<path id="ro_00000085941991718134566820000000000324176095129018_" class="st0" d="M120.7,169.7c0.4,0.5,5.3-11.2-2-13.1
		c-6.2-1.5-17.5-6.1-33.5,13c-17.3,20.6-12.8,17.3-22,25.8c-2.9,3.2-15.9,11.5-19.2,0.9c-3-9.7,7.2-28.9,8.9-31.9
		c0.2-0.3,0.3-0.6,0.3-0.9c0.3-2-0.3-2.5-0.4-2.2c-1.5,2.1-13.4,19.3-12.3,32.3c0.5,6.1,3.1,11.2,7.5,13.5c0.2,0.1,0.4,0.2,0.5,0.2
		c11.3,3.6,17.7-5.8,29.5-19.3C94.4,168.2,110.7,160.5,120.7,169.7z"/>
	<path class="st0" d="M110,142.7L110,142.7c0,1.7-1.3,3.3-2.7,4.9c-12.7,4.9-21.6,10.4-33.6,19.8c-0.2-1.7,0.1-3.2,0.7-4.5
		C81.4,154.8,104.8,142.8,110,142.7L110,142.7z"/>
	<g id="ha-ro_00000023976997511723540860000002579203251185045895_">
		<path id="fatha-1_00000075140538749867014120000016834167263271231925_" class="st0" d="M106.6,48.6L67.5,68.3
			c-1.4,0.9-4,3.6-0.8,5.7c1.3,0.9,2.3,1.5,2.9,2c0.6,0.4,1.3,0.2,1.7-0.4l0,0c0.3-0.6,0.1-1.3-0.5-1.6c-2-1.1-4-2.1-3.3-2.7
			c13.3-6.7,34.4-17.4,38.4-19.3c0.3-0.1,0.5-0.4,0.6-0.8C107,49.5,107.2,48.3,106.6,48.6z"/>
		<path id="hamza_00000023975128866676825180000007321010508490531227_" class="st0" d="M99.8,81.4c0,0-7.9,3.8-10.8,0.8
			c-3-3,1-3.9,1-3.9c1.2-0.5,3.8-0.2,3.2,2.5c-0.5,2.4,2.4-1.7,2.4-1.7s3.5-4.3-0.1-4.8c-3-0.1-8.6,1.5-10.7,4
			c-1.5,1.8-1.7,4.4-0.4,6.3c0.8,1.3,0.8,3-0.1,4.2c-0.7,0.9-1.1,1.8-0.7,2.4c0.7,1,4.6-4,11.4-4.9c0.7-0.1,1.4-0.4,1.9-0.9
			C99.1,83.3,101.4,81.1,99.8,81.4z"/>
		<path id="fatha-2_00000087400702454655539180000010569839358840204947_" class="st0" d="M144.9,127.1c-0.5-0.9-11.4,4-18.7,7.2
			c-1.8,1.9-3,3.5-2.9,4.4c4.5-1.7,14.1-5.4,18.5-7C143.3,130.3,144.1,128.7,144.9,127.1z"/>
		<g id="tashdid_00000157275535535218847620000007419228453826237853_">
			<path class="st0" d="M174.1,74.2c0.1-0.3,1.3,4.2,2,8.3c0.3,2,0.1,3.7-0.8,4.5c-1.2,0.9-3.4,0.2-4.5-1.3
				c-0.7-0.9-0.9-2.3-1.1-1.8c-0.2,0.4-1.3,3.5-3.5,3.7c-0.8,0.1-1.5-0.3-1.8-0.4c-3-1.7-1.4-8.5-1.6-9.9c-0.1-0.1-0.2-0.2-0.4-0.3
				c-0.3-0.1-0.5-0.2-0.6-0.2s-0.2,0-0.2-0.1c-0.1-0.1,0.2-0.4,0.3-0.5c0.4-0.4,1.1-1.3,2.2-2.5c0.1,0,0.2,0,0.2,0
				c0.9,0.4,0.1,5.4,0.1,9.1c0,1.8,1.8,2.3,2.9,1.6c1.3-0.8,2-2.7,2.1-4.3c0.2-1.6-0.4-6.4-0.4-6.4c0-0.8,0.6,0.1,1.2,1.1
				c0.3,0.5,0.5,1.1,0.4,1.7c-0.1,1.9-0.3,6,0.5,6.7c0.9,0.9,3.4,2.5,3.3,0.3c-0.1-1.6-0.8-4.5-1.2-6c-0.2-0.7-0.1-1.4,0.3-2.1
				L174.1,74.2z"/>
			<path class="st0" d="M174.4,63.2c0.9-0.4,1.6-1.2,1.7-2.2l0,0c0.8-1.7-14.4,5-14.9,5.7c-0.3,0.5-0.9,2-0.4,1.8
				C165.5,66.6,161.5,68.3,174.4,63.2z"/>
		</g>
		<path class="st0" d="M200.5,71.5c0,0-0.1,0-0.1,0.1c-1.1,1.3-5.5,6.8-4.6,8.9c0.2,0.4,0.3,0.9,0.4,1.6c0.1,0.4,0,0.8-0.3,1.2
			c-2.1,2.5-4.6,5.8-7.4,9.5c-0.8,1-2.5,0.5-2.5-0.8l-1.6-25.9c0.6-2.9,4,8,5.3,7.8c2-0.2-6.7-30.8-7.9-30s-5.3,9.3-4.9,11.2
			c0.1,0.4,0.2,0.7,0.3,1c0.4,0.5,0.7,0.8,1,1c0.7,0.7,0.7,2.1,0.8,2.8c0.5,14.6,1.2,28,2.1,42.4c0,0.3-0.1,0.7-0.3,0.9
			c-1.2,1.6-2.4,3.2-3.7,4.9c-4.6,6-10,12.9-16.3,20.5c-0.8,1-2.5,0.4-2.5-0.9c-0.1-4.4-0.1-8.9-0.2-13.3c0-0.6,0.4-1.2,1-1.4
			c4.6-1.5,9.2-3,13.8-4.5c0.4-0.1,0.7-0.4,0.9-0.8c0.6-1.5,1.2-2.9,1.9-4.4c0.7-1.7-0.2-3.6-1.9-4.1c-3.3-1-8.2-2.4-16.1-4.3
			c-1.7-0.4-3.5-0.8-5.4-1.2c-6.7-1.5-15.1-3.1-25.8-4.9c-14.7-2.9-16.9,2.7-18.7,6.4c0,0.1-0.1,0.2-0.1,0.3
			c-0.8,3.2-0.3,5.4,0.2,6.5c1.3,3.4,4.6,5.8,9.4,9.2c0.5,0.4,0.9,0.6,0.9,0.6c2.2,1.6,2.9,1.9,4,2.8l0,0c0.9,0.7,0.6,2.2-0.5,2.5
			c-3.9,1.1-7.3,2.4-10.4,3.8c-2.4,1.1-4.6,2.3-6.6,3.5c-0.6,0.3-1.3,0.2-1.7-0.2c-14.7-14.5-29-28.7-33.2-32.5
			c-3-2.6,9.5,1.5,7.2,0.1c-7.7-5.9-21.1-17.1-19.7-14.5c0.3,2.6,0.9,7.2,1.3,9.4c0.1,0.5,0.5,0.9,0.9,1.1c0.4,0.1,0.9,0.3,1.3,0.7
			c0.6,0.5,1,1,1.1,1.3c0,0.1,0.1,0.1,0.1,0.1c4.5,5.5,18.9,21.6,34.8,38c0.6,0.6,0.5,1.6-0.2,2.1c-0.6,0.4-1.1,0.9-1.7,1.3
			c-3.4,2.6-7.7,6.2-12.3,11c-0.4,0.5-1.1,1.2-2,2.1c-4.5,4.6-10.4,10.5-17.1,10.3c-0.9,0-2.3-0.1-3.9-0.9c-3.4-1.8-4.5-5.7-5-7.6
			c-1.1-4.1-0.3-7.5,0-9.2c0.7-2.8,1.7-4.7,3.4-7.6c1.4-2.4,3.5-5.6,6.5-9.2c0.2-0.2,0.3-0.4,0.3-0.7c0.2-1.5,0.4-2.8,0.1-2.9l0,0
			c-4.5,1.3-12.2,17.1-12.8,20.7c-0.8,5-2.7,16.1,2.6,20.3c5.1,4,14.8,6.9,28.7-9.4c5-5.9,11.1-10.4,17.8-14
			c0.6-0.3,1.2-0.2,1.7,0.3c2.4,2.5,4.9,4.9,7.3,7.3l0,0l0,0c7.3,7.3,14.5,14,20.6,19.1c0.6,0.5,0.7,1.4,0.1,2
			c-3,3.3-11.1,13.1-9.8,21.7c0.3,1.6,0.7,4.8,3.3,6.9c2.6,2.1,5.9,1.9,6.4,1.9c3-0.2,13.8-6.7,14.6-17.7c0.5-7.1-3.3-12.5-5.3-14.8
			c-0.5-0.5-0.4-1.3,0-1.8c3.3-3.9,6.7-7.7,10-11.6c0.8-1,2.5-0.4,2.5,0.9c0.3,20.1,1.3,24.5-0.6,48.3c0,0.6,0,1.6,0.1,1.6
			c5.3,0.2,6.3-28.3,6.2-59.8c0-0.3,0.1-0.7,0.3-0.9c6.9-7.9,13.7-15.9,20.6-23.8c0.8-1,2.4-0.4,2.5,0.8c0.4,7.5,0.8,15.4,1.1,23.9
			c0.9,21.7,0.4,46.5,1.6,46.5c1.2,0.1,4.7-24.5,4.1-51.8l-1.7-27.6c0-0.4,0.1-0.7,0.3-1c2.5-2.9,5.1-5.9,7.6-8.8
			c0.8-1,2.4-0.4,2.5,0.9c0.4,11,1.3,38.9,1.4,42.4c0.1,4.2,1.8,43.2,1.7,47.2c-0.2,8,1.4,19.3-7.7,20.3c-12,0.9-13.8-6.1-14.8-18.8
			c-0.8-10.8,0.6-25.1-13.4-48c-0.9-1-1.6,5.2-1.8,8.7c0,0.2,0,0.3,0.1,0.5c3,9.2,8.9,24.4,10.6,33.7c0.5,2.7,0.8,5-0.3,7.5
			c-1.1,2.6-3.1,3.9-6.3,6.1c-6.8,4.8-13.5,10.4-30.4,15.6c-0.1,0-0.1,0-0.2,0c-6.6,1.2-16.8,3.5-18.3-4.9c-0.3-1.5-0.3-2.7-0.2-3.5
			c0.3-1.8,0.1-1.6,1.3-4.9c0.6-1.7-1-1.3-1.5-0.7c-1,1.7-2.2,4.4-3,7.9c-0.4,2-0.5,4.7-0.4,6.8c0.3,9.3,13.2,10.4,20,8.4
			c9.3-2.6,25.7-9.7,35-20.8l0.1-0.1c5.3-5.1,5.5-5.5,4.7-1.8c-0.1,1.3-0.1,2.9,0.2,4.7c1,4.9,4.3,8,5.8,9.3
			c0.1,0.1,0.2,0.1,0.3,0.2c4.8,2.2,8.4,1.9,10.1,1.6h0.1c12.5-3.7,15.7-11.6,16-24.8c0-5.1,0-12.7-0.3-21.9
			c-1.3-36.5-5.6-75-3.7-76.6c0.1-0.1,1.2,0.8,3.1,2.4c1.8,1.5,1.9,1.8,2.1,1.7C209.2,94.1,202.1,71.2,200.5,71.5z M111.2,98
			c-0.6-2,3.1-1.5,4.1-1.5c0.6,0,21.8,2.8,35.8,5.2c0.7,0.1,1.1,0.7,1.1,1.3c0,1.2,0,2.4,0,3.6c0,0.6-0.4,1.2-1,1.3
			c-6.4,1.9-14.3,4.1-21.2,6.1c-0.6,0.2-1.2-0.1-1.6-0.6C125.4,108.3,119.1,103.9,111.2,98z M140.1,171c1.2,2.2,1.2,6.5-1.9,9.9
			c0,0-6.6,7.4-12.4,1c-1.9-3,0.6-6.7,8-16.1c0.5-0.7,1.5-0.7,2.1-0.1C137.1,166.9,138.9,169,140.1,171z M134.9,155.8
			c-5.5-5.3-14.7-14.4-24.5-24.2c-0.7-0.7-0.5-1.9,0.4-2.3c5.5-2.3,11.2-4.2,17.1-6.1c0.6-0.2,1.3,0.1,1.6,0.6
			c0.4,0.7,1,1.5,1.7,1.4s0.9-1.5,1-2.6c0-0.6,0.4-1.1,1-1.3c5.8-1.9,11.6-3.8,17.4-5.7c0.9-0.3,1.8,0.4,1.8,1.3
			c0.1,6.4,0.1,13.3,0.1,20.7c0,0.4-0.1,0.7-0.4,1c-4.7,5.4-9.8,11.1-15.3,17C136.3,156.3,135.4,156.3,134.9,155.8z M159.2,103.2
			C159.2,103.2,159.3,103.2,159.2,103.2c1.3,0.3,1.4,2,0.2,2.3h-0.1c-0.8,0.2-1.5-0.3-1.6-1.1l0,0
			C157.7,103.6,158.5,103,159.2,103.2z"/>
		<path class="st0" d="M141.9,86c-1.7-0.8-5-2.6-6.7-3.8c-0.6-0.4-0.8-1.1-0.5-1.7c0.7-1.5,1.9-3.7,2.8-5.1c0.4-0.5,1.1-0.7,1.7-0.5
			c1.8,0.7,5.2,2.5,6.8,3.7c0.5,0.4,0.7,1.1,0.4,1.7c-0.7,1.5-1.9,3.8-2.8,5.2C143.3,86.1,142.6,86.3,141.9,86z"/>
		<path class="st0" d="M160.8,47.1c0,0-0.1,0.1-0.2,0.1c-0.9,0-3.4-4.3-4.5-4.9c-0.5-0.4,0.6,23.3,1.4,52.7
			c-1.7-0.4-3.5-0.8-5.4-1.2c-0.6-36.6-1.6-52.5-1.7-56.3c0-0.5-1.6-2.7-1.8-4.1c0-0.3,0-0.6,0-0.9c0.1-0.8,0.5-1.6,1.3-2.7
			c0.6-0.8,2-3.3,3.9-4.5C155.1,24.3,161.5,46.4,160.8,47.1z"/>
	</g>
	<path id="alif-1_00000072253893393728743320000003885993498582408884_" class="st0" d="M216.1,206.7c1.2,0.1,5.3-19,5.3-40.4
		c0-0.2,0-0.5,0-0.7c-0.2-4.5-2.4-52.3-2.4-52.3c0.7-2.3,3.9,6.3,5.1,6.2c2-0.1-6-24.3-7.2-23.8c-1.2,0.6-5.5,7.2-5.2,8.7
		c0.1,0.4,0.2,0.6,0.3,0.8c0.3,0.4,0.7,0.6,0.9,0.8c0.7,0.5,0.7,1.6,0.7,2.2c0.2,20.4,1.5,37.6,2,61.8
		C216,187.2,214.9,206.6,216.1,206.7z"/>
</g>
<path id="circle_00000151542347321365599900000000253882407084407435_" class="st0" d="M133,2.4C61.9,2.4,4.2,60,4.2,131.2
	C4.2,202.3,61.9,260,133,260s128.8-57.7,128.8-128.8C261.8,60,204.2,2.4,133,2.4z M133.5,249c-65.4,0-118.3-53-118.3-118.4
	s53-118.4,118.3-118.4s118.3,53,118.3,118.4S198.9,249,133.5,249z"/>
<g id="hovlisi_00000036961816985791307080000015032628700589650606_">
	<path class="st0" d="M288.9,158.2c-0.2-2.6,1.9-4.9,4.6-4.9h6.2c5.3,0,6.3,4.4,6.3,9.3v21.9c0,2.5,2,4.6,4.6,4.6h16.7
		c2.5,0,4.6-2,4.6-4.6v-23.8c0-0.9,0-1.8,0-2.5c-0.2-2.6,1.9-4.9,4.6-4.9h6.2c5.3,0,6.3,4.4,6.3,9.3v56.1c0,0.9,0,1.8,0,2.5
		c0.2,2.6-1.9,4.9-4.6,4.9h-6.2c-5.3,0-6.3-4.4-6.3-9.3v-19c0-2.5-2-4.6-4.6-4.6h-16.7c-2.5,0-4.6,2-4.6,4.6v20.9c0,0.9,0,1.8,0,2.5
		c0.2,2.6-1.9,4.9-4.6,4.9h-6.2c-5.3,0-6.3-4.4-6.3-9.3v-56.1C289,159.8,289,159,288.9,158.2z"/>
	<path class="st0" d="M397.3,152.2c22.9,0,36.3,16.4,36.3,37.3c0,20.6-13.8,37.8-36.3,37.8s-36.5-17.1-36.5-37.8
		C360.8,168.7,374.8,152.2,397.3,152.2z M397.2,224.7c11.9,0,18-16,18-35.2c0-19.4-6.2-34.7-18-34.7s-18,15.5-18,34.7
		S385.3,224.7,397.2,224.7z"/>
	<path class="st0" d="M451.5,153.8c3.2,0,4.9,1.7,5.7,4.1l15.8,44.4c1.5,4.2,7.6,4,8.7-0.4l12-45.2c0.5-2,2.3-3.4,4.4-3.4h1.6
		c3.2,0,5.4,3.2,4.3,6.1l-22,60.1c-0.3,0.8-0.5,1.6-0.6,2.5c-0.3,2.3-2.2,4.1-4.5,4.1h-10.5c-1.9,0-3.7-1.2-4.3-3l-21.4-59.8
		c-0.4-1.1-0.7-2.2-1.1-3.4c-1.1-3,1.1-6.2,4.3-6.2L451.5,153.8L451.5,153.8z"/>
	<path class="st0" d="M514.8,218.8v-58c0-0.9,0-1.8,0-2.5c-0.2-2.6,1.9-4.9,4.6-4.9h6.2c5.3,0,6.3,4.4,6.3,9.3v54.2
		c0,0.1,0,0.2,0,0.3c0,2.8,2.5,5,5.3,4.5c6.7-1.2,13.5-2.6,20-4.5c2.9-0.8,5.9,1.3,5.9,4.4l0,0c0,2.5-2,4.6-4.6,4.6h-39.1
		c-2.7,0-4.7-2.2-4.6-4.9C514.8,220.5,514.8,219.7,514.8,218.8z"/>
	<path class="st0" d="M589.6,218.8c0,0.9,0,1.8,0,2.5c0.2,2.6-1.9,4.9-4.6,4.9h-6.2c-5.3,0-6.3-4.4-6.3-9.3v-56.1c0-0.9,0-1.8,0-2.5
		c-0.2-2.6,1.9-4.9,4.6-4.9h6.2c5.3,0,6.3,4.4,6.3,9.3V218.8z"/>
	<path class="st0" d="M632,152.2c30,0,34.5,17.6,18.9,22.6c-2.4,0.8-4.9-0.6-5.7-3c-2.9-9.1-7.1-17.3-13.2-17.3
		c-6.5,0-9.5,5.5-9.4,12.2c0.3,20.1,39.3,16.7,39.3,39.1c0,11.7-9.1,21.4-30.5,21.4c-26.3,0-35.7-14.1-21.7-23.3
		c2.5-1.6,5.9-0.4,6.8,2.4c3.5,10.3,8.9,18.5,16.8,18.5c7.8,0,11.8-5.2,11.8-11.7c0-17.8-40.2-18-40.2-41.1
		C604.9,160.6,615.9,152.2,632,152.2z"/>
	<path class="st0" d="M691.7,218.8c0,0.9,0,1.8,0,2.5c0.2,2.6-1.9,4.9-4.6,4.9h-6.2c-5.3,0-6.3-4.4-6.3-9.3v-56.1c0-0.9,0-1.8,0-2.5
		c-0.2-2.6,1.9-4.9,4.6-4.9h6.2c5.3,0,6.3,4.4,6.3,9.3V218.8z"/>
</g>
<g id="oxirat_00000087372576376584800260000011219790911938260376_">
	<path class="st0" d="M328.7,51.5c24.9,0,39.5,17.3,39.5,39.5c0,21.8-15,40-39.5,40S289,112.8,289,91
		C288.9,68.9,304.2,51.5,328.7,51.5z M328.5,128.2c12.9,0,19.6-17,19.6-37.3c0-20.5-6.7-36.8-19.6-36.8s-19.6,16.4-19.6,36.8
		S315.6,128.2,328.5,128.2z"/>
	<path class="st0" d="M370,56.6c-1.3-1.6-0.2-3.9,1.8-3.9h14.4c4.1,0,6.2,3.1,8.2,6.1l13.2,19.8c1,1.5,3.3,1.4,4.2-0.3l12-24.2
		c0.4-0.8,1.2-1.3,2.2-1.3h11c2,0,3.2,2.4,1.9,3.9L414.6,86c-0.7,0.8-0.7,2-0.2,2.9l18.9,28.8c2.2,3.3,4.1,6,6,8.2
		c1.4,1.6,0.3,4-1.8,4h-13.6c-6.2,0-7.6-3.4-11.6-9.5l-10-15.2c-1-1.5-3.3-1.4-4.2,0.2l-11.6,23.1c-0.4,0.8-1.2,1.3-2.1,1.3h-11.1
		c-2.1,0-3.2-2.4-1.8-4l23.9-27.9c0.7-0.8,0.8-2,0.2-2.9l-21.2-32.3C373.3,61,371.7,58.7,370,56.6z"/>
	<path class="st0" d="M471.3,121.9c0,1.9,0,3.4,0.4,4.7c0.5,1.5-0.7,3.1-2.3,3.1h-9.8c-5.7,0-6.8-4.6-6.8-9.8V60.5
		c0-1.9,0-3.4-0.4-4.7c-0.5-1.5,0.7-3.1,2.3-3.1h9.8c5.7,0,6.8,4.6,6.8,9.8V121.9z"/>
	<path class="st0" d="M517.3,52.6c16.7,0,33.8,1.7,33.8,22c0,13-8.9,18.8-19.3,21.1c-2,0.4-2.6,3.1-0.8,4.3
		c10.8,7.5,15.9,19.9,23.2,25.2c1.5,1.1,1.2,3.5-0.5,4.2c-3.1,1.2-6.7,1.9-10.8,1.9c-18.6,0.1-15.8-26.6-28.9-34
		c-0.7-0.4-1.2-1.2-1.2-2.1l0,0c0-1.3,1-2.3,2.3-2.4c10.8-0.7,16.4-6.6,16.4-18.1c0-12-5.6-19.1-17.9-19.1h-4.1
		c-1.5,0-2.6,1.4-2.4,2.9c0.2,1.3,0.3,2.7,0.3,4.1V122c0,1.9,0,3.4,0.4,4.7c0.5,1.5-0.7,3.1-2.3,3.1h-9.8c-5.7,0-6.8-4.6-6.8-9.8
		V60.5c0-1.9,0-3.4-0.4-4.7c-0.5-1.5,0.7-3.1,2.3-3.1h26.5V52.6z"/>
	<path class="st0" d="M569.1,130.5c-1.7,0-2.8-1.7-2.3-3.2l24.9-66.9c0.5-1.4,0.8-2.8,0.7-4.2c-0.2-1.5,0.9-2.8,2.3-2.8h15.8
		c1,0,1.9,0.6,2.3,1.6l23.8,65.5c0.7,2.1,1.5,4.5,2.6,6.6c0.8,1.6-0.3,3.5-2.1,3.5h-12.3c-3.5,0-5.4-1.8-6.2-4.4l-6.6-18.1
		c-0.3-0.9-1.2-1.6-2.3-1.6h-22.9c-1.1,0-2,0.7-2.3,1.8l-5.6,20.5c-0.3,1-1.2,1.8-2.3,1.8h-7.5V130.5z M589.1,101.9h17.2
		c1.7,0,2.8-1.7,2.3-3.2l-9.9-27.3c-0.8-2.2-4-2.1-4.6,0.2l-7.3,27.3C586.3,100.4,587.5,101.9,589.1,101.9z"/>
	<path class="st0" d="M632.2,52.6h70c1.3,0,2.4,1.1,2.4,2.4v7.1c0,1.6-1.6,2.8-3.1,2.3c-7.6-2.4-15.8-4.8-23.3-6.5
		c-1.8-0.4-3.4,1.4-2.8,3.2c0.6,1.6,1,3.6,1,5.7v55.1c0,1.9,0,3.4,0.4,4.7c0.5,1.5-0.7,3.1-2.3,3.1h-9.8c-5.7,0-6.8-4.6-6.8-9.8
		V64.7c0-2-0.2-3.8-0.6-5.4c-0.4-1.2-1.6-2-2.8-1.7c-7.3,1.7-15.2,4.3-21.4,6.6c-1.6,0.6-3.2-0.6-3.2-2.3v-7
		C629.8,53.7,630.9,52.6,632.2,52.6z"/>
</g>
</svg>
